<?xml version="1.0" encoding="UTF-8" standalone="no"?>
<!-- Created with Inkscape (http://www.inkscape.org/) -->

<svg
   width="210mm"
   height="297mm"
   viewBox="0 0 210 297"
   version="1.1"
   id="svg5"
   inkscape:version="1.1 (c68e22c387, 2021-05-23)"
   sodipodi:docname="back.svg"
   xmlns:inkscape="http://www.inkscape.org/namespaces/inkscape"
   xmlns:sodipodi="http://sodipodi.sourceforge.net/DTD/sodipodi-0.dtd"
   xmlns="http://www.w3.org/2000/svg"
   xmlns:svg="http://www.w3.org/2000/svg">
  <sodipodi:namedview
     id="namedview7"
     pagecolor="#ffffff"
     bordercolor="#999999"
     borderopacity="1"
     inkscape:pageshadow="0"
     inkscape:pageopacity="0"
     inkscape:pagecheckerboard="0"
     inkscape:document-units="mm"
     showgrid="false"
     inkscape:zoom="0.60221661"
     inkscape:cx="-197.60332"
     inkscape:cy="-10.793459"
     inkscape:window-width="2400"
     inkscape:window-height="1261"
     inkscape:window-x="2391"
     inkscape:window-y="-9"
     inkscape:window-maximized="1"
     inkscape:current-layer="g46878"
     inkscape:snap-grids="true" />
  <defs
     id="defs2">
    <marker
       style="overflow:visible;"
       id="Arrow1Lend"
       refX="0.0"
       refY="0.0"
       orient="auto"
       inkscape:stockid="Arrow1Lend"
       inkscape:isstock="true">
      <path
         transform="scale(0.8) rotate(180) translate(12.5,0)"
         style="fill-rule:evenodd;fill:context-stroke;stroke:context-stroke;stroke-width:1.0pt;"
         d="M 0.0,0.0 L 5.0,-5.0 L -12.5,0.0 L 5.0,5.0 L 0.0,0.0 z "
         id="path1349" />
    </marker>
    <marker
       style="overflow:visible"
       id="Arrow1Lend-8"
       refX="0"
       refY="0"
       orient="auto"
       inkscape:stockid="Arrow1Lend"
       inkscape:isstock="true">
      <path
         transform="matrix(-0.8,0,0,-0.8,-10,0)"
         style="fill:context-stroke;fill-rule:evenodd;stroke:context-stroke;stroke-width:1pt"
         d="M 0,0 5,-5 -12.5,0 5,5 Z"
         id="path1349-3" />
    </marker>
  </defs>
  <g
     inkscape:label="Camada 1"
     inkscape:groupmode="layer"
     id="layer1">
    <g
       id="g46878"
       inkscape:export-filename="C:\Users\abreu\Documents\GitHub_rep\website\mat-proj\Estatistica\Distrib_Probabilidades\Bernoulli_Px.png"
       inkscape:export-xdpi="300"
       inkscape:export-ydpi="300">
      <path
         style="fill:none;stroke:#000000;stroke-width:0.264583px;stroke-linecap:butt;stroke-linejoin:miter;stroke-opacity:1;marker-end:url(#Arrow1Lend)"
         d="M 22.037792,115.98815 H 87.47497"
         id="path1264"
         inkscape:export-filename="C:\Users\abreu\Documents\GitHub_rep\website\mat-proj\Estatistica\Distrib_Probabilidades\Bernoulli_Px.png"
         inkscape:export-xdpi="300"
         inkscape:export-ydpi="300" />
      <path
         style="fill:none;stroke:#000000;stroke-width:0.264583px;stroke-linecap:butt;stroke-linejoin:miter;stroke-opacity:1;marker-end:url(#Arrow1Lend-8)"
         d="M 29.500218,118.53543 V 64.815802"
         id="path1264-9"
         inkscape:export-filename="C:\Users\abreu\Documents\GitHub_rep\website\mat-proj\Estatistica\Distrib_Probabilidades\Bernoulli_Px.png"
         inkscape:export-xdpi="300"
         inkscape:export-ydpi="300" />
      <text
         xml:space="preserve"
         style="font-size:4.23333px;line-height:1.25;font-family:'CMU Serif';-inkscape-font-specification:'CMU Serif';stroke-width:0.264583"
         x="40.758297"
         y="120.28671"
         id="text2730-8"
         inkscape:export-filename="C:\Users\abreu\Documents\GitHub_rep\website\mat-proj\Estatistica\Distrib_Probabilidades\Bernoulli_Px.png"
         inkscape:export-xdpi="300"
         inkscape:export-ydpi="300"><tspan
           sodipodi:role="line"
           id="tspan2728-5"
           style="stroke-width:0.264583"
           x="40.758297"
           y="120.28671">0</tspan></text>
      <text
         xml:space="preserve"
         style="font-size:4.23333px;line-height:1.25;font-family:'CMU Serif';-inkscape-font-specification:'CMU Serif';stroke-width:0.264583"
         x="63.512486"
         y="120.28671"
         id="text2730-8-4"
         inkscape:export-filename="C:\Users\abreu\Documents\GitHub_rep\website\mat-proj\Estatistica\Distrib_Probabilidades\Bernoulli_Px.png"
         inkscape:export-xdpi="300"
         inkscape:export-ydpi="300"><tspan
           sodipodi:role="line"
           id="tspan2728-5-6"
           style="stroke-width:0.264583"
           x="63.512486"
           y="120.28671">1</tspan></text>
      <text
         xml:space="preserve"
         style="font-size:4.23333px;line-height:1.25;font-family:'CMU Serif';-inkscape-font-specification:'CMU Serif';stroke-width:0.264583"
         x="26.470783"
         y="76.895058"
         id="text2730-8-5"
         inkscape:export-filename="C:\Users\abreu\Documents\GitHub_rep\website\mat-proj\Estatistica\Distrib_Probabilidades\Bernoulli_Px.png"
         inkscape:export-xdpi="300"
         inkscape:export-ydpi="300"><tspan
           sodipodi:role="line"
           id="tspan2728-5-3"
           style="stroke-width:0.264583"
           x="26.470783"
           y="76.895058">1</tspan></text>
      <text
         xml:space="preserve"
         style="font-style:normal;font-variant:normal;font-weight:normal;font-stretch:normal;font-size:4.23333px;line-height:1.25;font-family:Greek;-inkscape-font-specification:Greek;stroke-width:0.264583"
         x="26.470783"
         y="89.59507"
         id="text2730-8-5-7"
         inkscape:export-filename="C:\Users\abreu\Documents\GitHub_rep\website\mat-proj\Estatistica\Distrib_Probabilidades\Bernoulli_Px.png"
         inkscape:export-xdpi="300"
         inkscape:export-ydpi="300"><tspan
           sodipodi:role="line"
           id="tspan2728-5-3-9"
           style="font-style:italic;font-variant:normal;font-weight:normal;font-stretch:normal;font-family:Greek;-inkscape-font-specification:Greek;stroke-width:0.264583"
           x="26.470783"
           y="89.59507">q</tspan></text>
      <text
         xml:space="preserve"
         style="font-style:normal;font-variant:normal;font-weight:normal;font-stretch:normal;font-size:4.23333px;line-height:1.25;font-family:Greek;-inkscape-font-specification:Greek;stroke-width:0.264583"
         x="26.470783"
         y="104.9409"
         id="text2730-8-5-7-04"
         inkscape:export-filename="C:\Users\abreu\Documents\GitHub_rep\website\mat-proj\Estatistica\Distrib_Probabilidades\Bernoulli_Px.png"
         inkscape:export-xdpi="300"
         inkscape:export-ydpi="300"><tspan
           sodipodi:role="line"
           id="tspan2728-5-3-9-92"
           style="font-style:italic;font-variant:normal;font-weight:normal;font-stretch:normal;font-family:Greek;-inkscape-font-specification:Greek;stroke-width:0.264583"
           x="26.470783"
           y="104.9409">q</tspan></text>
      <text
         xml:space="preserve"
         style="font-size:4.23333px;line-height:1.25;font-family:'CMU Serif';-inkscape-font-specification:'CMU Serif';stroke-width:0.264583"
         x="21.708279"
         y="104.9409"
         id="text2730-8-5-7-0"
         inkscape:export-filename="C:\Users\abreu\Documents\GitHub_rep\website\mat-proj\Estatistica\Distrib_Probabilidades\Bernoulli_Px.png"
         inkscape:export-xdpi="300"
         inkscape:export-ydpi="300"><tspan
           sodipodi:role="line"
           id="tspan2728-5-3-9-9"
           style="stroke-width:0.264583"
           x="21.708279"
           y="104.9409">1</tspan></text>
      <path
         style="fill:none;stroke:#000000;stroke-width:0.264583px;stroke-linecap:butt;stroke-linejoin:miter;stroke-opacity:1"
         d="m 28.745087,75.622964 c 1.510263,0 1.510263,0 1.510263,0"
         id="path3801"
         inkscape:export-filename="C:\Users\abreu\Documents\GitHub_rep\website\mat-proj\Estatistica\Distrib_Probabilidades\Bernoulli_Px.png"
         inkscape:export-xdpi="300"
         inkscape:export-ydpi="300" />
      <path
         style="fill:none;stroke:#000000;stroke-width:0.264583px;stroke-linecap:butt;stroke-linejoin:miter;stroke-opacity:1"
         d="m 28.745087,88.322972 c 1.510263,0 1.510263,0 1.510263,0"
         id="path3801-2"
         inkscape:export-filename="C:\Users\abreu\Documents\GitHub_rep\website\mat-proj\Estatistica\Distrib_Probabilidades\Bernoulli_Px.png"
         inkscape:export-xdpi="300"
         inkscape:export-ydpi="300" />
      <path
         style="fill:none;stroke:#000000;stroke-width:0.264583px;stroke-linecap:butt;stroke-linejoin:miter;stroke-opacity:1"
         d="m 28.745087,103.66883 c 1.510263,0 1.510263,0 1.510263,0"
         id="path3801-2-2"
         inkscape:export-filename="C:\Users\abreu\Documents\GitHub_rep\website\mat-proj\Estatistica\Distrib_Probabilidades\Bernoulli_Px.png"
         inkscape:export-xdpi="300"
         inkscape:export-ydpi="300" />
      <path
         style="fill:none;stroke:#000000;stroke-width:0.264583px;stroke-linecap:butt;stroke-linejoin:miter;stroke-opacity:1"
         d="m 41.788263,115.20919 c 0,1.51026 0,1.51026 0,1.51026"
         id="path3801-2-2-7"
         inkscape:export-filename="C:\Users\abreu\Documents\GitHub_rep\website\mat-proj\Estatistica\Distrib_Probabilidades\Bernoulli_Px.png"
         inkscape:export-xdpi="300"
         inkscape:export-ydpi="300" />
      <path
         style="fill:none;stroke:#000000;stroke-width:0.264583px;stroke-linecap:butt;stroke-linejoin:miter;stroke-opacity:1"
         d="m 64.542444,115.20919 c 0,1.51026 0,1.51026 0,1.51026"
         id="path3801-2-2-7-9"
         inkscape:export-filename="C:\Users\abreu\Documents\GitHub_rep\website\mat-proj\Estatistica\Distrib_Probabilidades\Bernoulli_Px.png"
         inkscape:export-xdpi="300"
         inkscape:export-ydpi="300" />
      <path
         style="fill:none;stroke:#000000;stroke-width:0.264583px;stroke-linecap:butt;stroke-linejoin:miter;stroke-opacity:1"
         d="m 23.982584,103.66883 c 1.510263,0 1.510263,0 1.510263,0"
         id="path3801-2-2-0"
         inkscape:export-filename="C:\Users\abreu\Documents\GitHub_rep\website\mat-proj\Estatistica\Distrib_Probabilidades\Bernoulli_Px.png"
         inkscape:export-xdpi="300"
         inkscape:export-ydpi="300" />
      <text
         xml:space="preserve"
         style="font-size:4.23333px;line-height:1.25;font-family:'CMU Serif';-inkscape-font-specification:'CMU Serif';stroke-width:0.264583"
         x="17.464127"
         y="68.368568"
         id="text31011"
         inkscape:export-filename="C:\Users\abreu\Documents\GitHub_rep\website\mat-proj\Estatistica\Distrib_Probabilidades\Bernoulli_Px.png"
         inkscape:export-xdpi="300"
         inkscape:export-ydpi="300"><tspan
           sodipodi:role="line"
           id="tspan31009"
           style="font-style:italic;stroke-width:0.264583"
           x="17.464127"
           y="68.368568">p<tspan
   style="font-size:65%;baseline-shift:sub"
   id="tspan35961">X</tspan><tspan
   style="font-style:normal"
   id="tspan31013">(<tspan
   style="font-style:italic"
   id="tspan31015">x</tspan>)</tspan></tspan></text>
      <text
         xml:space="preserve"
         style="font-size:4.23333px;line-height:1.25;font-family:'CMU Serif';-inkscape-font-specification:'CMU Serif';stroke-width:0.264583"
         x="84.02552"
         y="119.94231"
         id="text31011-3"
         inkscape:export-filename="C:\Users\abreu\Documents\GitHub_rep\website\mat-proj\Estatistica\Distrib_Probabilidades\Bernoulli_Px.png"
         inkscape:export-xdpi="300"
         inkscape:export-ydpi="300"><tspan
           sodipodi:role="line"
           id="tspan31009-8"
           style="font-style:italic;stroke-width:0.264583"
           x="84.02552"
           y="119.94231">x</tspan></text>
      <path
         style="fill:#800000;stroke:#d90044;stroke-width:0.465;stroke-linecap:butt;stroke-linejoin:miter;stroke-miterlimit:4;stroke-dasharray:none;stroke-opacity:1"
         d="m 64.542444,87.599403 c 0,27.609787 0,27.609787 0,27.609787"
         id="path40804"
         inkscape:export-filename="C:\Users\abreu\Documents\GitHub_rep\website\mat-proj\Estatistica\Distrib_Probabilidades\Bernoulli_Px.png"
         inkscape:export-xdpi="300"
         inkscape:export-ydpi="300" />
      <path
         style="fill:#800000;stroke:#d90044;stroke-width:0.465;stroke-linecap:butt;stroke-linejoin:miter;stroke-miterlimit:4;stroke-dasharray:none;stroke-opacity:1"
         d="m 41.788262,103.49417 c 0,12.36986 0,12.36986 0,12.36986"
         id="path40804-1"
         inkscape:export-filename="C:\Users\abreu\Documents\GitHub_rep\website\mat-proj\Estatistica\Distrib_Probabilidades\Bernoulli_Px.png"
         inkscape:export-xdpi="300"
         inkscape:export-ydpi="300" />
      <g
         aria-label="."
         id="text45347"
         style="font-size:4.23333px;line-height:1.25;font-family:'CMU Serif';-inkscape-font-specification:'CMU Serif';fill:#d90044;fill-opacity:1;stroke-width:0.146725"
         transform="matrix(1.8032613,0,0,1.8032613,-31.99923,-80.303686)"
         inkscape:export-filename="C:\Users\abreu\Documents\GitHub_rep\website\mat-proj\Estatistica\Distrib_Probabilidades\Bernoulli_Px.png"
         inkscape:export-xdpi="300"
         inkscape:export-ydpi="300">
        <path
           d="m 40.754622,102.06673 q -0.06408,-0.0682 -0.06408,-0.1571 0,-0.0889 0.06408,-0.15296 0.06408,-0.0661 0.16123,-0.0661 0.09302,0 0.155029,0.062 0.06408,0.0599 0.06408,0.15916 0,0.0971 -0.06821,0.16123 -0.06615,0.062 -0.150895,0.062 -0.09715,0 -0.16123,-0.0682 z"
           id="path45679"
           style="fill:#d90044;fill-opacity:1;stroke-width:0.146725" />
      </g>
      <g
         aria-label="."
         id="text45347-2"
         style="font-size:4.23333px;line-height:1.25;font-family:'CMU Serif';-inkscape-font-specification:'CMU Serif';fill:#d90044;fill-opacity:1;stroke-width:0.146725"
         transform="matrix(1.8032613,0,0,1.8032613,-9.2421933,-95.594176)"
         inkscape:export-filename="C:\Users\abreu\Documents\GitHub_rep\website\mat-proj\Estatistica\Distrib_Probabilidades\Bernoulli_Px.png"
         inkscape:export-xdpi="300"
         inkscape:export-ydpi="300">
        <path
           d="m 40.754622,102.06673 q -0.06408,-0.0682 -0.06408,-0.1571 0,-0.0889 0.06408,-0.15296 0.06408,-0.0661 0.16123,-0.0661 0.09302,0 0.155029,0.062 0.06408,0.0599 0.06408,0.15916 0,0.0971 -0.06821,0.16123 -0.06615,0.062 -0.150895,0.062 -0.09715,0 -0.16123,-0.0682 z"
           id="path45679-6"
           style="fill:#d90044;fill-opacity:1;stroke-width:0.146725" />
      </g>
      <path
         style="fill:#6d0a4a;fill-opacity:1;stroke-width:1"
         d="m -149.02396,134.70283 -3.25411,-0.35491 -3.15562,-0.54465 -3.15561,-0.54465 -3.11527,-0.80003 -3.11527,-0.80004 -3.175,-1.08267 -3.17499,-1.08267 -3.57187,-1.57196 -3.57188,-1.57195 -2.91042,-1.60711 -2.91041,-1.6071 -3.30729,-2.18563 -3.3073,-2.18562 -2.91041,-2.32468 -2.91042,-2.32467 -3.85258,-3.85258 -3.85258,-3.85258 -2.32302,-2.91042 -2.32302,-2.91041 -2.20289,-3.307304 -2.20289,-3.30729 -1.60119,-2.91041 -1.60119,-2.91042 -1.60355,-3.65805 -1.60356,-3.65806 -1.16054,-3.48569 -1.16055,-3.4857 -0.808,-3.30729 -0.80801,-3.30729 -0.52581,-3.30729 -0.52581,-3.3073 -0.27515,-3.0427 -0.27514,-3.04271 v -4.10104 -4.10105 l 0.27514,-3.0427 0.27515,-3.04271 0.52581,-3.30729 0.52581,-3.3073 0.80801,-3.30729 0.808,-3.30729 1.16623,-3.50271 1.16623,-3.50271 1.43839,-3.32428 1.4384,-3.32428 1.67249,-3.08205 1.67249,-3.0820401 2.00632,-3.05555 2.00632,-3.05555 2.35598,-3.0427 2.35598,-3.04271 4.36895,-4.36895 4.36895,-4.3689499 3.04271,-2.3555 3.0427,-2.3555 2.95818,-1.93684 2.95817,-1.93683 2.86266,-1.58298 2.86266,-1.58298 3.57188,-1.56469 3.57187,-1.56469 3.57187,-1.19993 3.57187,-1.19993 3.30729,-0.80748 3.30729,-0.80749 3.3073,-0.52581 3.30729,-0.52581 3.04271,-0.27515 3.0427,-0.27514 4.23334,0.004 4.23333,0.004 3.77157,0.38372 3.77157,0.38373 2.44614,0.41787 2.44614,0.41788 3.30729,0.80303 3.30729,0.80304 3.50271,1.16623 3.50271,1.16623 3.32428,1.43839 3.32428,1.4384 3.08205,1.67249 3.082044,1.67249 3.05555,2.00632 3.05555,2.00632 3.0427,2.35598 3.04271,2.35598 4.36895,4.3689499 4.36895,4.36895 2.34801,3.04271 2.34801,3.0427 1.51323,2.24896 1.51323,2.24896 1.65429,2.87238 1.65428,2.8723801 1.39501,2.9689 1.395,2.9689 1.19758,3.15455 1.19757,3.15456 0.80598,2.77812 0.80598,2.77813 0.52272,2.24896 0.52272,2.24895 0.42352,2.44614 0.42352,2.44614 0.38373,3.77157 0.38372,3.77157 0.005,4.30701 0.005,4.307 -0.40466,3.89508 -0.40467,3.89508 -0.40216,2.38125 -0.40216,2.38125 -0.80304,3.30729 -0.80304,3.30729 -1.16054,3.4857 -1.16055,3.48569 -1.60355,3.65806 -1.60356,3.65805 -1.60119,2.91042 -1.60118,2.91041 -2.2029,3.30729 -2.20289,3.307304 -2.32301,2.91041 -2.32303,2.91042 -3.85258,3.85258 -3.85258,3.85258 -2.91041,2.32467 -2.91042,2.32468 -3.30729,2.18804 -3.3073,2.18803 -3.175004,1.74081 -3.175,1.74082 -3.35354,1.45692 -3.35354,1.45693 -3.12875,1.06151 -3.12875,1.0615 -3.10257,0.79684 -3.10257,0.79684 -3.11514,0.54555 -3.11514,0.54555 -3.70416,0.38149 -3.70417,0.38149 -4.7625,-0.0242 -4.7625,-0.0242 -3.25411,-0.35491 z m 85.407134,-50.055484 -10e-5,-0.19844 -3.93925,-0.5968 -3.93925,-0.5968 -2.68985,-0.7991 -2.68985,-0.79909 -2.62674,-1.15602 -2.62674,-1.15603 -2.14828,-1.25945 -2.14829,-1.25945 -2.41674,-1.86778 -2.41673,-1.86778 -2.78401,-2.78751 -2.78402,-2.78752 -2.85992,-3.57187 -2.859934,-3.57188 -3.3833,-5.02708 -3.38329,-5.02709 -4.31073,-6.87916 -4.31072,-6.87917 -2.67032,-3.96875 -2.67031,-3.96875 -2.0086,-2.51354 -2.0086,-2.51354 -2.50508,-2.38724 -2.50508,-2.38724 -2.23572,-1.1222 -2.23573,-1.1222 -1.42319,-0.2605 -1.4232,-0.2605 -1.7518,0.27546 -1.75181,0.27545 -1.5875,0.74415 -1.5875,0.74414 -1.59999,1.21108 -1.59999,1.21108 -2.16186,2.25184 -2.16186,2.25185 -2.45586,3.30602 -2.45585,3.30602 -3.2593,5.10952 -3.2593,5.10952 -4.29071,6.74687 -4.29071,6.74688 -2.42244,3.37301 -2.42243,3.37301 -2.06609,2.56937 -2.0661,2.56938 -2.22326,2.33675 -2.22327,2.33675 -2.01006,1.67317 -2.01007,1.67317 -2.51354,1.6506 -2.51355,1.6506 -1.78038,0.89919 -1.78039,0.89918 -1.94546,0.77282 -1.94545,0.77282 -2.49986,0.68103 -2.49985,0.68104 -4.03918,0.63045 -4.03917,0.63046 -0.16412,0.16412 -0.16412,0.16412 h 76.77325 76.773264 z M -178.71045,73.608266 v -10.97293 l 2.4086,-3.24842 2.4086,-3.24842 6.61357,-9.92188 6.61358,-9.92187 0.37052,-0.38743 0.37053,-0.38742 v 24.53065 24.53065 h -9.39271 -9.39269 z m 57.41457,-15.01884 v -25.99179 l 0.90522,1.34419 0.90523,1.34418 4.29732,6.85437 4.29731,6.85437 2.41911,3.70416 2.4191,3.70417 1.77106,2.44526 1.77106,2.44526 v 11.6438 11.6438 h -9.3927 -9.39271 z"
         id="path49410" />
    </g>
  </g>
</svg>
