<?xml version="1.0" encoding="UTF-8" standalone="no"?>
<!-- Created with Inkscape (http://www.inkscape.org/) -->

<svg
   width="210mm"
   height="297mm"
   viewBox="0 0 210 297"
   version="1.1"
   id="svg5"
   inkscape:version="1.1 (c68e22c387, 2021-05-23)"
   sodipodi:docname="ext-link.svg"
   xmlns:inkscape="http://www.inkscape.org/namespaces/inkscape"
   xmlns:sodipodi="http://sodipodi.sourceforge.net/DTD/sodipodi-0.dtd"
   xmlns="http://www.w3.org/2000/svg"
   xmlns:svg="http://www.w3.org/2000/svg">
  <sodipodi:namedview
     id="namedview7"
     pagecolor="#ffffff"
     bordercolor="#999999"
     borderopacity="1"
     inkscape:pageshadow="0"
     inkscape:pageopacity="0"
     inkscape:pagecheckerboard="0"
     inkscape:document-units="mm"
     showgrid="false"
     inkscape:zoom="0.15055415"
     inkscape:cx="179.33746"
     inkscape:cy="1082.6669"
     inkscape:window-width="1920"
     inkscape:window-height="1001"
     inkscape:window-x="-9"
     inkscape:window-y="-9"
     inkscape:window-maximized="1"
     inkscape:current-layer="layer1" />
  <defs
     id="defs2" />
  <g
     inkscape:label="Camada 1"
     inkscape:groupmode="layer"
     id="layer1">
    <g
       id="g5109">
      <path
         id="path213"
         style="fill:#dd032c;fill-opacity:1;stroke-width:1"
         d="m 96.50375,58.727938 c -4.37801,-0.02624 7.41138,-0.02765 -10.546106,0.03607 -32.263456,0.114501 -24.872003,0.04808 -28.73778,1.458825 -5.091334,1.857997 -10.115092,6.486004 -12.581662,11.591023 -2.435053,5.039799 -2.24844,1.417005 -2.24844,43.744624 v 37.53516 l 0.790131,2.54043 c 2.49923,8.03022 9.265973,14.33498 17.271814,16.09307 l 5.16e-4,-5.1e-4 c 2.589477,0.56908 74.265897,0.5778 76.945687,0.01 6.94803,-1.47267 13.10943,-6.3741 16.16129,-12.85709 2.01869,-4.28819 1.78466,-3.80005 2.07533,-21.09536 l 0.48731,-23.71896 -0.70591,-0.7059 c -0.68135,-0.68134 -0.83552,-0.7059 -4.40076,-0.7059 -3.54631,0 -3.7224,0.0275 -4.38733,0.69247 l -0.69246,0.69298 -0.39946,21.61521 c -0.003,7.41892 -0.12148,14.28948 -0.26303,15.26832 -0.67603,4.67513 -4.07486,8.67595 -8.90334,10.47998 -0.97439,0.36405 -5.91827,0.43418 -36.12441,0.51108 -21.930523,0.0558 -35.663602,-0.0142 -36.784832,-0.18759 -4.641905,-0.71796 -8.659942,-4.1402 -10.234517,-8.71677 -0.514652,-1.49587 -0.535167,-2.93764 -0.532265,-37.42408 0.0033,-38.393884 -0.05152,-36.817078 1.385443,-39.633758 1.236713,-2.42415 4.04663,-4.940285 6.725171,-6.021854 l 1.623158,-0.655259 24.582477,-0.141076 10.825675,-0.323394 0.78238,-0.782381 c 0.76683,-0.76672 0.78238,-0.848521 0.78238,-4.117062 0,-3.892087 -0.28217,-4.69084 -1.81384,-5.139738 -0.0857,-0.02512 -0.45719,-0.03863 -1.08262,-0.04237 z"
         sodipodi:nodetypes="csssscccccsccsscccssscscscccccsscc" />
      <path
         id="path4179"
         style="fill:#dd032c;fill-opacity:1;stroke-width:1"
         d="m 117.63466,58.668115 c -9.39462,-0.0027 -9.80583,0.107667 -10.63811,0.532268 -2.09081,1.066651 -3.1669,3.594637 -2.53266,5.950024 0.29206,1.084646 1.28871,2.202325 7.845,8.799978 l 7.51013,7.55768 -26.589602,26.599405 c -26.20906,26.21886 -26.58958,26.61548 -26.58958,27.70477 0,1.05522 0.23252,1.33981 5.15058,6.29936 2.83281,2.8567 5.40446,5.30121 5.7149,5.43223 0.78537,0.33145 0.8891,0.32491 1.91409,-0.12144 0.5287,-0.23023 11.873,-11.37278 27.150812,-26.66711 l 26.24336,-26.271263 7.34115,7.303433 c 4.03783,4.01671 7.77453,7.52114 8.30389,7.78815 0.68917,0.34766 1.42296,0.45235 2.5833,0.36845 1.97696,-0.143 3.45449,-1.1449 4.24005,-2.87476 0.50053,-1.10214 0.52762,-2.26767 0.52762,-22.751578 0,-20.483901 -0.0271,-21.649446 -0.52762,-22.751584 -0.29014,-0.638908 -1.00789,-1.527942 -1.59473,-1.975588 l -1.0666,-0.813906 -22.24877,-0.07545 c -5.47611,-0.0186 -9.60567,-0.03218 -12.73721,-0.03307 z" />
    </g>
  </g>
</svg>
